<?xml version="1.0" encoding="UTF-8" standalone="no"?>
<svg width="60px" height="60px" viewBox="0 0 60 60" version="1.1" xmlns="http://www.w3.org/2000/svg" xmlns:xlink="http://www.w3.org/1999/xlink" xmlns:sketch="http://www.bohemiancoding.com/sketch/ns">
    <!-- Generator: Sketch 3.2.2 (9983) - http://www.bohemiancoding.com/sketch -->
    <title>Police</title>
    <desc>Created with Sketch.</desc>
    <defs></defs>
    <g id="stroked" stroke="none" stroke-width="1" fill="none" fill-rule="evenodd" sketch:type="MSPage">
        <g id="Transport" sketch:type="MSLayerGroup" transform="translate(-359.000000, -598.000000)" stroke="#535353" stroke-width="2" stroke-linecap="round" stroke-linejoin="round">
            <g id="Police" transform="translate(361.000000, 607.000000)" sketch:type="MSShapeGroup">
                <g id="Oval-1513-+-Oval-1513-+-Rectangle-1743" transform="translate(0.000000, 14.000000)">
                    <path d="M39,21 L15,21 L15,21 C15,18.2385763 12.7614237,16 10,16 C7.23857625,16 5,18.2385763 5,21 L0,21 L3.11111111,7 L49.0040601,7 C52.867811,7 56,10.1418733 56,14 C56,17.8635164 52.8732122,20.995984 48.9999991,20.9999961 C49,18.2385763 46.7614237,16 44,16 C41.2385763,16 39,18.2385763 39,21 Z" id="Rectangle-1743"></path>
                    <path d="M41.4979936,7 L31.0203745,0.097152976 L13.0091254,0.097152976 L6.32045765,6.83047681" id="Path-3843"></path>
                </g>
                <rect id="Rectangle-1762" x="20" y="7" width="6" height="7"></rect>
                <circle id="Oval-1514" cx="44" cy="35" r="5"></circle>
                <circle id="Oval-1515" cx="44" cy="35" r="1"></circle>
                <circle id="Oval-1516" cx="10" cy="35" r="1"></circle>
                <circle id="Oval-1514" cx="10" cy="35" r="5"></circle>
                <path d="M55.4051026,27.071589 L50.5948974,24.928411" id="Path-3844"></path>
                <path d="M2.47002155,25 L6.70295006,25 L5.35510222,28.8819324 L1.80673968,29" id="Path-3845"></path>
                <path d="M36.0000001,25 L33,25" id="Path-3846"></path>
                <path d="M20,5 L17.4504902,2.45049024" id="Line"></path>
                <path d="M29,5 L26.4504902,2.45049024" id="Line" transform="translate(27.500000, 3.500000) scale(-1, 1) translate(-27.500000, -3.500000) "></path>
                <path d="M23,3 L23,0" id="Line"></path>
            </g>
        </g>
    </g>
</svg>